<svg version="1.1" id="Layer_1" xmlns="http://www.w3.org/2000/svg" xmlns:xlink="http://www.w3.org/1999/xlink" x="0px" y="0px"
	 width="100%" viewBox="0 0 1024 1024" enable-background="new 0 0 1024 1024" xml:space="preserve">
<path fill="#000000" opacity="1.000000" stroke="none" 
	d="
M536.999878,919.396484 
	C508.675629,919.646240 480.849609,919.572021 453.024811,919.722412 
	C367.046997,920.187195 281.066193,920.112854 195.086487,920.200806 
	C176.680588,920.219666 161.158691,914.129578 150.499191,898.313721 
	C145.333801,890.649658 142.741150,882.034424 142.733932,872.895935 
	C142.643478,758.575623 142.504272,644.254700 142.849854,529.935364 
	C142.901794,512.752075 151.465637,498.676544 167.123413,491.404480 
	C176.050583,487.258362 178.959869,482.120422 179.738434,473.000397 
	C182.352417,442.380768 194.276199,415.274963 212.152954,390.467438 
	C234.339844,359.678711 264.168915,339.381317 299.066223,325.785858 
	C302.157959,324.581390 305.256805,323.395111 309.276459,321.843689 
	C270.384613,294.676514 252.826965,257.021698 256.032471,210.649750 
	C258.353699,177.070053 274.897644,149.964157 301.037689,129.040756 
	C351.427765,88.706772 425.405792,98.566460 465.812225,151.232071 
	C503.191620,199.952179 498.388153,279.108582 437.424377,320.779388 
	C438.060028,322.743988 440.005005,322.568909 441.421143,323.063843 
	C468.000336,332.353333 492.193878,345.649902 512.565308,365.358002 
	C514.678711,367.402588 516.369263,368.119507 518.864563,365.773834 
	C540.177979,345.738556 564.762878,331.152374 592.509277,321.889465 
	C592.975098,321.733917 593.399536,321.453979 594.185242,321.061096 
	C593.052734,318.874451 590.915833,317.822876 589.189636,316.474091 
	C565.706055,298.124359 550.864075,274.718323 544.948669,245.194077 
	C533.129456,186.203766 565.130920,137.201920 607.096008,116.481667 
	C678.802734,81.076508 762.211975,125.629433 774.830627,200.762711 
	C782.991150,249.352112 767.810303,290.094635 726.534485,319.386536 
	C725.893372,319.841553 725.344788,320.426910 724.750732,320.953491 
	C725.796509,323.159607 727.830627,323.096283 729.454346,323.710480 
	C776.725037,341.592224 813.599609,371.219086 835.154175,417.877136 
	C843.716675,436.412140 849.367981,455.821472 850.386108,476.385468 
	C850.509216,478.871155 851.039795,481.335907 851.181274,483.821747 
	C851.310913,486.100037 852.810242,486.900177 854.592712,487.592163 
	C876.128296,495.953094 885.257874,512.410278 885.264709,534.754456 
	C885.299072,646.741699 885.317078,758.729004 885.337524,870.716248 
	C885.342651,899.015747 865.275879,919.324890 836.960388,919.345093 
	C737.140259,919.416199 637.320068,919.387085 536.999878,919.396484 
M849.156616,730.023438 
	C849.128479,719.536072 849.101501,709.048706 849.071960,698.561340 
	C849.013245,677.731018 848.907349,656.900696 848.935608,636.070496 
	C848.940674,632.331787 848.104980,630.536133 843.737244,630.117126 
	C824.984863,628.317688 807.667603,621.790955 792.268860,611.194153 
	C762.642944,590.806885 744.371094,562.659180 738.011414,527.161316 
	C737.146057,522.331482 735.228210,521.293152 730.865112,521.297913 
	C674.206421,521.359375 617.547485,521.257629 560.888672,521.261963 
	C473.567078,521.268738 386.245483,521.317749 298.923889,521.374634 
	C291.002502,521.379761 290.751221,521.418640 289.324615,528.886902 
	C283.739532,558.124023 269.651398,582.472412 247.092743,601.737488 
	C228.854141,617.313354 208.114426,627.795654 183.780518,629.598816 
	C180.135208,629.868896 179.302078,630.935852 179.305573,634.247070 
	C179.353851,680.074158 179.344391,725.901367 179.227341,771.728271 
	C179.218109,775.337769 180.265076,776.855347 184.001923,776.848877 
	C186.964172,776.843750 189.948044,777.456787 192.887619,777.987488 
	C251.512863,788.570862 284.434570,836.395142 289.468018,878.152283 
	C289.972351,882.336121 291.488495,883.990479 296.077667,883.920654 
	C340.394348,883.245728 384.716888,883.723267 429.040253,883.193665 
	C471.183777,882.690186 513.341370,882.426208 555.497131,883.484131 
	C577.139954,884.027283 598.807312,883.484619 620.467407,883.156067 
	C656.788940,882.605103 693.121704,882.688904 729.449280,882.758484 
	C734.561157,882.768250 736.773987,881.269897 737.785156,876.105347 
	C744.152649,843.585205 761.068848,817.528687 787.784790,798.183289 
	C804.704224,785.931702 823.649841,777.922302 844.654419,775.472290 
	C847.941956,775.088867 849.945862,773.999023 849.793823,769.821716 
	C849.321350,756.846436 849.355042,743.852783 849.156616,730.023438 
M499.508514,481.981354 
	C500.778656,484.684265 503.260498,483.670349 505.244629,483.671265 
	C606.025146,483.718414 706.805725,483.682953 807.586060,483.799438 
	C812.313843,483.804901 813.958679,482.604492 813.776062,477.658844 
	C812.685059,448.123749 801.973267,422.209076 782.324890,400.712677 
	C740.914551,355.407379 688.546021,339.060089 628.692078,347.922607 
	C589.714233,353.694000 556.899536,372.409149 531.196960,402.791565 
	C512.030640,425.447662 500.311279,451.106689 499.508514,481.981354 
M301.500000,483.863342 
	C307.831940,483.863251 314.163849,483.867462 320.495789,483.862396 
	C366.152496,483.825867 411.809418,483.724121 457.465698,483.845825 
	C462.125305,483.858246 464.098694,482.458374 464.287323,477.777771 
	C464.561188,470.983002 465.253113,464.222321 466.636963,457.521271 
	C470.451813,439.048218 475.082550,420.988373 485.652618,404.866394 
	C493.664612,392.646057 494.655792,395.699982 482.706909,385.980682 
	C443.773315,354.311859 399.741699,340.870636 349.608917,348.218109 
	C298.375031,355.726990 258.720642,380.746033 231.687912,425.062347 
	C221.590607,441.615509 215.059769,459.479797 215.069519,479.238708 
	C215.070847,481.920502 214.616440,484.295593 219.021942,484.244537 
	C246.179123,483.929565 273.340210,483.952423 301.500000,483.863342 
M640.443787,300.940704 
	C651.906616,303.973541 663.457520,303.993103 674.999695,301.627106 
	C718.594360,292.690765 745.343994,255.460754 740.202271,212.307251 
	C734.557434,164.931442 692.338867,136.224457 649.751221,141.173553 
	C603.353088,146.565536 570.786133,190.481827 579.791382,237.635956 
	C586.177856,271.077637 607.825378,290.960358 640.443787,300.940704 
M356.535980,301.845673 
	C366.886932,304.467438 377.294342,304.287231 387.659119,302.131805 
	C429.880402,293.351532 457.992828,253.114380 451.819458,210.580093 
	C445.174286,164.795624 403.270050,134.740662 360.056030,141.667496 
	C313.958374,149.056580 282.855957,192.121887 294.247406,242.824432 
	C301.520203,275.195160 324.285034,293.477936 356.535980,301.845673 
M849.547791,532.357239 
	C846.583679,524.186462 840.995667,520.305115 831.520142,520.411682 
	C814.228271,520.606079 796.938293,520.997864 779.649048,521.372620 
	C777.206726,521.425537 774.666931,520.817627 772.136597,522.112122 
	C772.095947,522.717102 771.941589,523.368347 772.032349,523.983398 
	C772.274109,525.621643 772.471252,527.289978 772.948914,528.866699 
	C783.788696,564.652466 807.257507,586.750671 844.046448,594.409119 
	C848.105408,595.254028 849.816650,593.968689 849.776184,589.595520 
	C849.602234,570.801514 849.655518,552.005310 849.547791,532.357239 
M253.677628,875.606934 
	C251.231018,863.781433 245.675919,853.402832 238.465836,843.906067 
	C224.563904,825.595093 205.814545,815.608459 183.276688,812.180664 
	C179.535431,811.611572 178.380051,813.249878 178.377869,816.451721 
	C178.366302,833.443665 178.038193,850.446167 178.541763,867.423584 
	C178.853882,877.947144 184.437820,884.456909 192.531921,884.552246 
	C211.019409,884.770203 229.514572,884.692139 248.001587,884.407837 
	C254.850800,884.302551 255.414185,883.089355 253.677628,875.606934 
M773.697388,876.146362 
	C772.270874,881.026978 774.060181,883.417725 779.183716,883.339722 
	C780.677124,883.317017 782.173950,883.608337 783.669373,883.610718 
	C798.668762,883.634705 813.668579,883.685120 828.667419,883.595093 
	C833.005066,883.569031 837.310303,882.845276 841.343628,881.159912 
	C846.187805,879.135620 849.484680,875.447937 849.549438,870.185547 
	C849.774963,851.855957 849.646790,833.521729 849.599487,815.189392 
	C849.589417,811.290649 847.561157,809.833740 843.727905,810.698425 
	C807.962524,818.766052 784.410950,839.994568 773.697388,876.146362 
M240.153320,558.670959 
	C246.929535,549.013672 251.453308,538.440674 253.988068,526.875000 
	C255.002014,522.248657 253.585388,521.335327 249.444168,521.354492 
	C231.787094,521.436279 214.129089,521.356628 196.471649,521.282227 
	C193.922455,521.271484 191.500519,521.646423 189.194107,522.708618 
	C180.932083,526.513428 178.505768,533.760010 178.400528,541.982178 
	C178.202286,557.471680 178.340302,572.965637 178.352646,588.457703 
	C178.357895,595.063049 179.275681,596.031860 185.539902,594.401306 
	C207.466171,588.693848 225.960602,577.574097 240.153320,558.670959 
z"/>
<path fill="#000000" opacity="1.000000" stroke="none" 
	d="
M568.703674,548.142090 
	C626.815674,572.880859 662.913452,615.651855 672.771362,677.758057 
	C679.986267,723.213501 667.997437,764.949951 638.820129,801.110840 
	C618.553528,826.228271 593.053467,844.236816 562.618225,854.822021 
	C542.735168,861.737183 521.863647,863.652100 501.038788,861.919006 
	C469.665436,859.307861 441.078156,848.351440 416.261047,828.767273 
	C383.410889,802.843994 362.450684,769.137085 355.859711,727.848022 
	C348.027161,678.781189 358.721497,633.529297 391.384094,595.346375 
	C417.466156,564.856079 450.066193,544.723694 490.919891,539.408386 
	C517.585815,535.939087 543.253235,538.714233 568.703674,548.142090 
M390.528381,722.984680 
	C394.438293,742.171936 401.613068,760.014160 413.554626,775.600647 
	C444.897461,816.510376 486.265991,834.289917 537.150635,825.220947 
	C599.126221,814.175354 649.077087,747.942078 638.060242,680.676758 
	C627.600647,616.814026 565.924377,561.533264 491.852234,575.437744 
	C442.265869,584.745911 410.070221,614.928955 394.286224,662.540222 
	C387.856506,681.934998 387.117401,701.966125 390.528381,722.984680 
z"/>
<path fill="#000000" opacity="1.000000" stroke="none" 
	d="
M569.028564,717.165100 
	C580.118225,743.175720 571.050964,776.999207 537.755066,786.674072 
	C534.512634,787.616150 533.475830,789.095215 533.134033,792.489868 
	C531.480469,808.912964 517.249146,812.585327 505.675781,808.448914 
	C499.107697,806.101440 497.556641,800.170593 496.938965,794.426941 
	C496.316376,788.637390 493.811462,785.818176 488.408356,783.867065 
	C479.162720,780.528381 470.322083,776.155701 463.037811,769.243408 
	C456.104218,762.663757 455.309357,752.971985 461.074371,744.809448 
	C465.987030,737.853760 477.242828,735.378479 484.951996,739.453247 
	C487.045624,740.559937 488.398468,742.271240 488.900513,744.366333 
	C489.867188,748.400208 492.639465,750.541626 496.099915,752.075195 
	C505.993256,756.459839 515.902649,759.939148 526.722168,754.702820 
	C537.263245,749.601135 541.489502,738.707397 535.895264,730.154480 
	C533.434875,726.392883 529.739319,724.145081 525.838928,722.171448 
	C516.431580,717.411133 506.138245,715.062256 496.351624,711.332214 
	C485.364227,707.144592 474.974030,702.046448 466.886902,693.145996 
	C446.514252,670.724487 455.215057,631.999268 483.389008,620.908325 
	C490.504974,618.107117 496.360840,616.514771 495.336823,606.110657 
	C494.419281,596.788269 501.745911,590.473511 510.159515,589.692505 
	C520.028442,588.776489 527.132568,592.743469 529.654236,600.741760 
	C530.347900,602.941895 531.059875,605.294800 530.977051,607.548767 
	C530.794373,612.521423 533.802673,614.337708 537.718750,616.129517 
	C547.367004,620.544189 556.137268,626.270874 562.203796,635.289062 
	C566.501343,641.677612 566.581238,649.763672 562.651611,655.512207 
	C558.416504,661.707642 550.352356,664.796631 542.842590,663.054443 
	C537.833313,661.892334 534.362854,659.007751 533.758728,653.724365 
	C533.355469,650.197571 531.504272,648.451721 528.363464,647.392700 
	C518.232605,643.976624 508.509705,643.786194 499.323883,650.260864 
	C488.354248,657.992737 488.473267,671.017029 499.804993,678.032776 
	C507.535614,682.819031 516.278137,685.136963 524.899719,687.660278 
	C535.325867,690.711731 545.521057,694.241516 554.521484,700.552856 
	C560.612671,704.824219 565.864075,709.825195 569.028564,717.165100 
z"/>
</svg>